<?xml version="1.0" encoding="UTF-8" standalone="no" ?>
<!DOCTYPE svg PUBLIC "-//W3C//DTD SVG 1.1//EN" "http://www.w3.org/Graphics/SVG/1.1/DTD/svg11.dtd">
<svg xmlns="http://www.w3.org/2000/svg" xmlns:xlink="http://www.w3.org/1999/xlink" version="1.1" width="1080" height="1080" viewBox="0 0 1080 1080" xml:space="preserve">
<desc>Created with Fabric.js 5.2.4</desc>
<defs>
</defs>
<g transform="matrix(1 0 0 1 540 540)" id="2160d4a1-08d4-4f6a-a3b4-82738e39afb4"  >
<rect style="stroke: none; stroke-width: 1; stroke-dasharray: none; stroke-linecap: butt; stroke-dashoffset: 0; stroke-linejoin: miter; stroke-miterlimit: 4; fill: rgb(255,255,255); fill-rule: nonzero; opacity: 1; visibility: hidden;" vector-effect="non-scaling-stroke"  x="-540" y="-540" rx="0" ry="0" width="1080" height="1080" />
</g>
<g transform="matrix(1 0 0 1 540 540)" id="af3d03d3-6ac1-4743-8a90-92f414dd71b6"  >
</g>
<g transform="matrix(3.73 0 0 3.73 707.93 632.98)" id="741b3778-1d5e-4d0a-8749-7aad71e8187d"  >
<path style="stroke: rgb(0,0,0); stroke-width: 0; stroke-dasharray: none; stroke-linecap: butt; stroke-dashoffset: 0; stroke-linejoin: miter; stroke-miterlimit: 4; fill: rgb(179,16,16); fill-rule: nonzero; opacity: 1;" vector-effect="non-scaling-stroke"  transform=" translate(-61.44, -34.01)" d="M 2.03 11.52 C -0.63 8.94 -0.68 4.69 1.9 2.03 C 4.48 -0.6300000000000003 8.73 -0.6900000000000004 11.39 1.9 L 39.04 28.88 L 62.16 6.57 C 64.83 4 69.08 4.08 71.64999999999999 6.75 L 109.41999999999999 44.97 L 109.41999999999999 25.7 C 109.41999999999999 21.98 112.42999999999999 18.97 116.14999999999999 18.97 C 119.86999999999999 18.97 122.88 21.979999999999997 122.88 25.7 L 122.88 61.33 L 122.86 61.33 C 122.86 63.07 122.19 64.8 120.86 66.11 C 119.45 67.5 117.57 68.14 115.73 68.02 L 82.4 68.02 C 78.68 68.02 75.67 65.00999999999999 75.67 61.28999999999999 C 75.67 57.56999999999999 78.68 54.55999999999999 82.4 54.55999999999999 L 100.03 54.55999999999999 L 66.7 20.84 L 43.67 43.07 C 41.07 45.57 36.94 45.58 34.34 43.04 L 2.03 11.52 L 2.03 11.52 z" stroke-linecap="round" />
</g>
</svg>