<?xml version="1.0" encoding="UTF-8" standalone="no" ?>
<!DOCTYPE svg PUBLIC "-//W3C//DTD SVG 1.1//EN" "http://www.w3.org/Graphics/SVG/1.1/DTD/svg11.dtd">
<svg xmlns="http://www.w3.org/2000/svg" xmlns:xlink="http://www.w3.org/1999/xlink" version="1.1" width="1080" height="1080" viewBox="0 0 1080 1080" xml:space="preserve">
<desc>Created with Fabric.js 5.2.4</desc>
<defs>
</defs>
<rect x="0" y="0" width="100%" height="100%" fill="transparent"></rect>
<g transform="matrix(1 0 0 1 540 540)" id="2160d4a1-08d4-4f6a-a3b4-82738e39afb4"  >
<rect style="stroke: none; stroke-width: 1; stroke-dasharray: none; stroke-linecap: butt; stroke-dashoffset: 0; stroke-linejoin: miter; stroke-miterlimit: 4; fill: rgb(255,255,255); fill-rule: nonzero; opacity: 1; visibility: hidden;" vector-effect="non-scaling-stroke"  x="-540" y="-540" rx="0" ry="0" width="1080" height="1080" />
</g>
<g transform="matrix(1 0 0 1 540 540)" id="af3d03d3-6ac1-4743-8a90-92f414dd71b6"  >
</g>
<g transform="matrix(4 0 0 4 724.04 438.1)" id="9d931b6b-4ebd-47df-875b-d87b7544254d"  >
<path style="stroke: rgb(0,0,0); stroke-width: 0; stroke-dasharray: none; stroke-linecap: butt; stroke-dashoffset: 0; stroke-linejoin: miter; stroke-miterlimit: 4; fill: rgb(23,190,40); fill-rule: nonzero; opacity: 1;" vector-effect="non-scaling-stroke"  transform=" translate(-61.44, -34.03)" d="M 2.03 56.52 C -0.6300000000000003 59.1 -0.6900000000000004 63.35 1.9 66.01 C 4.48 68.67 8.73 68.73 11.39 66.14 L 39.04 39.16 L 62.16 61.47 C 64.83 64.03999999999999 69.08 63.96 71.64999999999999 61.29 L 109.41999999999999 23.07 L 109.41999999999999 42.34 C 109.41999999999999 46.06 112.42999999999999 49.07000000000001 116.14999999999999 49.07000000000001 C 119.86999999999999 49.07000000000001 122.88 46.06000000000001 122.88 42.34 L 122.88 6.71 L 122.86 6.71 C 122.86 4.97 122.19 3.2399999999999998 120.86 1.9299999999999997 C 119.45 0.5399999999999998 117.57 -0.10000000000000009 115.73 0.019999999999999796 L 82.4 0.019999999999999796 C 78.68 0.019999999999999796 75.67 3.0299999999999994 75.67 6.75 C 75.67 10.47 78.68 13.48 82.4 13.48 L 100.03 13.48 L 66.7 47.2 L 43.67 24.97 C 41.07 22.47 36.94 22.46 34.34 25 L 2.03 56.52 L 2.03 56.52 z" stroke-linecap="round" />
</g>
</svg>